<svg xmlns="http://www.w3.org/2000/svg" xmlns:xlink="http://www.w3.org/1999/xlink"><symbol fill="currnetColor" viewBox="0 0 30 30" id="arrow" xmlns="http://www.w3.org/2000/svg"><path d="M2.813 15A12.187 12.187 0 1 0 15 2.812 12.2 12.2 0 0 0 2.812 15Zm22.5 0A10.312 10.312 0 1 1 15 4.687 10.324 10.324 0 0 1 25.313 15Zm-10.039-4.413a.938.938 0 0 1 1.327 0l3.75 3.75a.94.94 0 0 1 0 1.326l-3.75 3.75a.938.938 0 0 1-1.327-1.326l2.15-2.15h-7.111a.938.938 0 0 1 0-1.874h7.112l-2.15-2.15a.94.94 0 0 1 0-1.326Z" fill="currentColor"/></symbol><symbol fill="none" viewBox="0 0 30 30" id="basket" xmlns="http://www.w3.org/2000/svg"><path fill-rule="evenodd" clip-rule="evenodd" d="M18.331 2.912a.937.937 0 0 1 1.258.42l2.751 5.502c1.691.13 2.753.462 3.438 1.308 1.125 1.393.676 3.488-.222 7.68l-.536 2.5c-.609 2.84-.912 4.26-1.944 5.094-1.031.834-2.483.834-5.389.834h-5.375c-2.904 0-4.357 0-5.387-.834-1.032-.834-1.337-2.254-1.945-5.095l-.536-2.5c-.898-4.191-1.348-6.286-.221-7.679.685-.847 1.746-1.178 3.437-1.308l2.751-5.503a.937.937 0 0 1 1.678.838L9.795 8.756c.604-.006 1.262-.006 1.982-.006h6.446c.72 0 1.378 0 1.982.006L17.911 4.17a.938.938 0 0 1 .42-1.257ZM9.063 15a.938.938 0 0 1 .937-.938h10a.938.938 0 0 1 0 1.875H10A.938.938 0 0 1 9.063 15Zm3.437 2.812a.938.938 0 0 0 0 1.875h5a.937.937 0 1 0 0-1.875h-5Z" fill="#0063B0"/></symbol><symbol color="#2329D6" fill="none" stroke="#2329D6" stroke-linecap="square" stroke-width="3" viewBox="0 0 24 24" id="close-icon" xmlns="http://www.w3.org/2000/svg"><path d="m6.343 6.343 11.314 11.314m-11.314 0L17.657 6.343"/></symbol><symbol fill="none" viewBox="0 0 20 21" id="email" xmlns="http://www.w3.org/2000/svg"><path d="M16.563 3.625H3.438A2.19 2.19 0 0 0 1.25 5.813v9.375a2.19 2.19 0 0 0 2.188 2.187h13.124a2.19 2.19 0 0 0 2.188-2.188V5.813a2.19 2.19 0 0 0-2.188-2.188Zm-.554 3.618-5.625 4.375a.625.625 0 0 1-.768 0L3.991 7.243a.625.625 0 1 1 .768-.986L10 10.333l5.241-4.076a.625.625 0 0 1 .768.986Z" fill="#84C0EA"/></symbol><symbol fill="none" viewBox="0 0 30 30" id="favorite" xmlns="http://www.w3.org/2000/svg"><path d="M20.618 4.487c-2.418 0-4.485 1.724-5.62 2.913C13.862 6.21 11.8 4.487 9.383 4.487c-4.167 0-7.075 2.905-7.075 7.062 0 4.58 3.612 7.541 7.107 10.405 1.65 1.354 3.358 2.752 4.668 4.303.22.26.543.41.882.41h.067c.34 0 .662-.152.882-.41 1.312-1.55 3.018-2.95 4.67-4.303 3.493-2.863 7.108-5.823 7.108-10.405 0-4.157-2.909-7.062-7.074-7.062Z" fill="#0063B0"/></symbol><symbol fill="none" viewBox="0 0 20 20" id="location" xmlns="http://www.w3.org/2000/svg"><path d="M15.833 7.5a5.834 5.834 0 0 0-11.666 0c0 1.156.34 2.23.92 3.137h-.006L10 18.333l4.918-7.696h-.006c.601-.936.92-2.025.92-3.137ZM10 10a2.5 2.5 0 1 1 0-5 2.5 2.5 0 0 1 0 5Z" fill="#84C0EA"/></symbol><symbol fill="none" viewBox="0 0 20 21" id="phone" xmlns="http://www.w3.org/2000/svg"><g clip-path="url(#ga)"><path fill-rule="evenodd" clip-rule="evenodd" d="M13.793 18.944c-1.2-.044-4.6-.514-8.162-4.075C2.07 11.308 1.6 7.908 1.556 6.707 1.489 4.877 2.89 3.099 4.51 2.405a1.225 1.225 0 0 1 1.204.133c1.333.971 2.253 2.441 3.043 3.597a1.253 1.253 0 0 1-.213 1.655L6.918 8.998a.4.4 0 0 0-.118.513c.368.67 1.023 1.666 1.773 2.416.751.75 1.794 1.448 2.51 1.858a.403.403 0 0 0 .537-.135l1.058-1.61a1.253 1.253 0 0 1 1.714-.277c1.172.811 2.54 1.715 3.542 2.998a1.225 1.225 0 0 1 .158 1.237c-.698 1.628-2.463 3.014-4.299 2.946Z" fill="#84C0EA"/></g><defs><clipPath id="ga"><path fill="#fff" transform="translate(0 .5)" d="M0 0h20v20H0z"/></clipPath></defs></symbol><symbol fill="none" viewBox="0 0 22 22" id="search" xmlns="http://www.w3.org/2000/svg"><g clip-path="url(#ha)"><path fill-rule="evenodd" clip-rule="evenodd" d="M4.708 9.25a4.375 4.375 0 1 1 8.75 0 4.375 4.375 0 0 1-8.75 0Zm4.375-6.125a6.125 6.125 0 1 0 3.668 11.03l4.463 4.464a.875.875 0 0 0 1.238-1.238l-4.463-4.462a6.126 6.126 0 0 0-4.906-9.794Z" fill="currentColor"/></g><defs><clipPath id="ha"><path fill="currentColor" transform="translate(.333 .5)" d="M0 0h21v21H0z"/></clipPath></defs></symbol></svg>